# AST/ASF file generated using VICON BodyLanguage
# -----------------------------------------------
:version 1.10
:name VICON
:units
  mass 1.0
  length 0.45
  angle deg
:documentation
   .ast/.asf automatically generated from VICON data using
   VICON BodyBuilder and BodyLanguage model FoxedUp or BRILLIANT.MOD
:root
   order TX TY TZ RX RY RZ
   axis XYZ
   position 0 0 0  
   orientation 0 0 0 
:bonedata
  begin
     id 1 
     name lhipjoint
     direction 0.693937 -0.600361 0.397515 
     length 2.37164 
     axis 0 0 0  XYZ
  end
  begin
     id 2 
     name lfemur
     direction 0.34202 -0.939693 0  
     length 6.18497  
     axis 0 0 20  XYZ
    dof rx ry rz
    limits (-160.0 20.0)
           (-70.0 70.0)
           (-60.0 70.0)
  end
  begin
     id 3 
     name ltibia
     direction 0.34202 -0.939693 0   
     length 6.91601   
     axis 0 0 20   XYZ
    dof rx
    limits (-10.0 170.0)
  end
  begin
     id 4 
     name lfoot
     direction 0.0978718 -0.2689 0.958182   
     length 1.81453   
     axis -90 7.62852e-016 20   XYZ
    dof rx rz
    limits (-45.0 90.0)
           (-70.0 20.0)
  end
  begin
     id 5 
     name ltoes
     direction 1.53569e-011 -4.21951e-011 1   
     length 0.912052   
     axis -90 7.62852e-016 20   XYZ
    dof rx
    limits (-90.0 20.0)
  end
  begin
     id 6 
     name rhipjoint
     direction -0.643996 -0.637876 0.422354   
     length 2.23216  
     axis 0 0 0  XYZ 
  end
  begin
     id 7 
     name rfemur
     direction -0.34202 -0.939693 0   
     length 6.15404   
     axis 0 0 -20   XYZ
    dof rx ry rz
    limits (-160.0 20.0)
           (-70.0 70.0)
           (-70.0 60.0)
  end
  begin
     id 8 
     name rtibia
     direction -0.34202 -0.939693 0   
     length 6.86744   
     axis 0 0 -20   XYZ
    dof rx
    limits (-10.0 170.0)
 end
 begin
     id 9 
     name rfoot
     direction -0.118701 -0.326127 0.937844   
     length 1.9243  
     axis -90 -7.62852e-016 -20   XYZ
    dof rx rz
    limits (-45.0 90.0)
           (-20.0 70.0)
  end
  begin
     id 10 
     name rtoes
     direction -1.5356e-011 -4.2181e-011 1   
     length 0.958865   
     axis -90 -7.62852e-016 -20   XYZ
    dof rx
    limits (-90.0 20.0)
  end
  begin
     id 11 
     name lowerback
     direction 0.0310826 0.968686 -0.246334   
     length 2.00021   
     axis 0 0 0   XYZ
    dof rx ry rz
    limits (-20.0 45.0)
           (-30.0 30.0)
           (-30.0 30.0)
  end
  begin
     id 12 
     name upperback
     direction -0.0152834 0.999474 -0.0286152   
     length 2.03728   
     axis 0 0 0   XYZ
    dof rx ry rz
    limits (-20.0 45.0)
           (-30.0 30.0)
           (-30.0 30.0)
  end
  begin
     id 13 
     name thorax
     direction -0.0323701 0.996236 0.0804149   
     length 2.16   
     axis 0 0 0   XYZ
    dof rx ry rz
    limits (-20.0 45.0)
           (-30.0 30.0)
           (-30.0 30.0)
  end
  begin
     id 14 
     name lowerneck
     direction 0.0307935 0.982251 0.185027   
     length 1.43558   
     axis 0 0 0   XYZ
    dof rx ry rz
    limits (-20.0 45.0)
           (-30.0 30.0)
           (-30.0 30.0)
  end
  begin
     id 15 
     name upperneck
     direction -0.0927153 0.994775 0.0427454   
     length 1.44603   
     axis 0 0 0   XYZ
    dof rx ry rz
    limits (-20.0 45.0)
           (-30.0 30.0)
           (-30.0 30.0)
  end
  begin
     id 16
     name head
     direction -0.0341265 0.999406 -0.00472033  
     length 1.45931  
     axis 0 0 0   XYZ
    dof rx ry rz
    limits (-20.0 45.0)
           (-30.0 30.0)
           (-30.0 30.0)
  end
  begin
     id 17 
     name lclavicle
     direction 0.820755 0.555306 -0.134151  
     length 2.66075  
     axis 0 0 0   XYZ
    dof ry rz
    limits (-20.0 10.0)
           (0.0 20.0)
  end
  begin
     id 18 
     name lhumerus
     direction 1 -4.48971e-011 5.24853e-027   
     length 5.0546   
     axis -180 -30 -90   XYZ
    dof rx ry rz
    limits (-60.0 90.0)
           (-90.0 90.0)
           (-90.0 90.0)
  end
  begin
     id 19
     name lradius
     direction 1 -4.48971e-011 2.76575e-028   
     length 3.39013   
     axis -180 -30 -90   XYZ
    dof rx
    limits (-10.0 170.0)
  end
  begin
     id 20
     name lwrist
     direction 1 -4.48939e-011 -2.27826e-027   
     length 1.69507   
     axis 2.17013e-015 90 90   XYZ
    dof ry
    limits (-180.0 0.0)
 end
  begin
     id 21 
     name lhand
     direction 1 -4.49009e-011 -4.55652e-027   
     length 0.572425   
     axis 2.90745e-015 90 90   XYZ
    dof rx rz
    limits (-90.0 90.0)
           (-45.0 45.0)
  end
  begin
     id 22 
     name lfingers
     direction 1 -4.48955e-011 -9.11303e-027   
     length 0.461504   
     axis 5.81489e-015 90 90   XYZ
    dof rx
    limits (0.0 90.0)
  end
  begin
     id 23
     name lthumb
     direction 0.707107 -6.34929e-011 0.707107   
     length 0.66263   
     axis -90 45 2.85299e-015   XYZ
    dof rx rz
    limits (-45.0 45.0)
           (-45.0 45.0)
  end
  begin
     id 24 
     name rclavicle
     direction -0.754477 0.632921 -0.173712   
     length 2.73081  
     axis 0 0 0   XYZ 
    dof ry rz
    limits (-10.0 20.0)
           (-20.0 0.0)
  end
  begin
     id 25 
     name rhumerus
     direction -1 -4.48969e-011 5.1496e-027  
     length 5.0701   
     axis -180 30 90   XYZ
    dof rx ry rz
    limits (-90.0 60.0)
           (-90.0 90.0)
           (-90.0 90.0)
  end
  begin
     id 26 
     name rradius
     direction -1 -4.48967e-011 -7.15624e-028   
     length 3.14957   
     axis -180 30 90   XYZ
    dof rx
    limits (-10.0 170.0)
  end
  begin
     id 27 
     name rwrist
     direction -1 -4.48938e-011 -2.27826e-027   
     length 1.57479   
     axis 2.17013e-015 -90 -90   XYZ
    dof ry
    limits (-180.0 0.0)
  end
  begin
     id 28
     name rhand
     direction -1 -4.49008e-011 -4.55652e-027   
     length 0.718191   
     axis 2.90745e-015 -90 -90   XYZ
    dof rx rz
    limits (-90.0 90.0)
           (-45.0 45.0)
  end
  begin
     id 29
     name rfingers
     direction -1 -4.48953e-011 -9.11303e-027   
     length 0.579024   
     axis 5.81489e-015 -90 -90   XYZ
    dof rx
    limits (0.0 90.0)
  end
  begin
     id 30
     name rthumb
     direction -0.707107 -6.34937e-011 0.707107   
     length 0.831366   
     axis -90 -45 -2.85299e-015   XYZ
    dof rx rz
    limits (-45.0 45.0)
           (-45.0 45.0)
  end
:hierarchy
  begin
    root lhipjoint rhipjoint lowerback
    lhipjoint lfemur
    lfemur ltibia
    ltibia lfoot
    lfoot ltoes
    rhipjoint rfemur
    rfemur rtibia
    rtibia rfoot
    rfoot rtoes
    lowerback upperback
    upperback thorax
    thorax lowerneck lclavicle rclavicle
    lowerneck upperneck
    upperneck head
    lclavicle lhumerus
    lhumerus lradius
    lradius lwrist
    lwrist lhand lthumb
    lhand lfingers
    rclavicle rhumerus
    rhumerus rradius
    rradius rwrist
    rwrist rhand rthumb
    rhand rfingers
  end

#!OML:ASF H:\Male1\Project 1\Capture day 1\Session 1\Male1.ASF
:FULLY-SPECIFIED
:DEGREES
183
root -11.0963 13.4471 2.16287 182.286 6.31584 -175.727
lowerback 28.599 -1.32534 -0.643754
upperback 12.5378 1.40674 -2.229
thorax -1.64381 2.11849 -2.5158
lowerneck -8.46155 5.96027 7.36282
upperneck -11.2094 7.99711 -8.17447
head -1.49935 4.32497 -3.84298
rclavicle 3.10104e-014 5.56597e-015
rhumerus 4.5404 -10.9226 -51.7579
rradius 113.368
rwrist -15.2733
rhand -38.2859 -3.23446
rfingers 7.12502
rthumb -11.3151 -32.9092
lclavicle 3.10104e-014 5.56597e-015
lhumerus 7.60818 12.0475 37.5934
lradius 109.331
lwrist -13.0063
lhand -34.638 17.2913
lfingers 7.12502
lthumb -7.79541 47.1276
rfemur -43.4331 -4.60454 5.76272
rtibia 64.9523
rfoot -16.925 -16.1822
rtoes -22.2841
lfemur -40.7084 -14.3094 -11.2093
ltibia 69.4232
lfoot -29.0827 11.484
ltoes -24.3785
184
root -10.9649 13.4286 2.13696 182.269 6.36128 -175.589
lowerback 28.5777 -1.37322 -0.358933
upperback 12.5286 1.40945 -2.13204
thorax -1.64689 2.12273 -2.57325
lowerneck -8.52828 5.97023 7.41922
upperneck -11.1863 7.99172 -8.41858
head -1.46724 4.32419 -3.93518
rclavicle -7.95139e-016 -2.78299e-014
rhumerus 4.54221 -10.8902 -51.8206
rradius 113.248
rwrist -15.1903
rhand -38.1786 -2.69995
rfingers 7.12502
rthumb -11.2116 -32.3804
lclavicle -7.95139e-016 -2.78299e-014
lhumerus 7.13517 11.7685 37.4996
lradius 109.098
lwrist -12.9696
lhand -34.3404 17.5525
lfingers 7.12502
lthumb -7.50811 47.3992
rfemur -42.4535 -3.94115 4.42412
rtibia 62.6071
rfoot -16.6148 -16.2014
rtoes -22.228
lfemur -40.5665 -14.3817 -10.4832
ltibia 69.6455
lfoot -29.4065 11.3706
ltoes -23.5666
185
root -10.827 13.4143 2.11256 182.273 6.43138 -175.482
lowerback 28.5469 -1.41289 -0.0869571
upperback 12.5151 1.41712 -2.04893
thorax -1.64941 2.12865 -2.63974
lowerneck -8.59882 5.97517 7.47938
upperneck -11.1659 7.98145 -8.64398
head -1.43645 4.32084 -4.02211
rclavicle -3.49861e-014 1.03368e-014
rhumerus 4.572 -10.9048 -51.8535
rradius 113.121
rwrist -15.1143
rhand -38.0586 -2.16387
rfingers 7.12502
rthumb -11.0957 -31.8506
lclavicle -3.49861e-014 1.03368e-014
lhumerus 6.68214 11.5487 37.3944
lradius 108.958
lwrist -12.9398
lhand -33.9078 17.8617
lfingers 7.12502
lthumb -7.09056 47.7229
rfemur -41.5704 -3.40241 3.36461
rtibia 60.3834
rfoot -16.2857 -16.2777
rtoes -22.3801
lfemur -40.3841 -14.3992 -9.75255
ltibia 69.757
lfoot -29.7028 11.2056
ltoes -22.7293
186
root -10.6813 13.4046 2.0898 182.282 6.50995 -175.472
lowerback 28.5081 -1.43817 0.0824292
upperback 12.5013 1.41638 -1.98268
thorax -1.64879 2.12698 -2.66312
lowerneck -8.65267 5.97837 7.54484
upperneck -11.1633 7.96988 -8.87319
head -1.41419 4.31745 -4.11319
rclavicle -1.03368e-014 3.4191e-014
rhumerus 4.63806 -10.9357 -51.8345
rradius 113.006
rwrist -15.058
rhand -37.9054 -1.68266
rfingers 7.12502
rthumb -10.948 -31.3772
lclavicle -1.03368e-014 3.4191e-014
lhumerus 6.22353 11.4069 37.3007
lradius 108.927
lwrist -12.9103
lhand -33.4328 18.1587
lfingers 7.12502
lthumb -6.63206 48.0349
rfemur -40.8053 -3.08017 2.55992
rtibia 58.3898
rfoot -15.9943 -16.4229
rtoes -22.5257
lfemur -40.1419 -14.3962 -9.0914
ltibia 69.7317
lfoot -29.9171 11.1114
ltoes -22.3032
187
root -10.5268 13.401 2.06901 182.304 6.58264 -175.562
lowerback 28.4465 -1.45785 0.146284
upperback 12.4894 1.39442 -1.93953
thorax -1.63645 2.11137 -2.64418
lowerneck -8.67706 5.98344 7.61966
upperneck -11.1922 7.96227 -9.10509
head -1.40677 4.31705 -4.20963
rclavicle 1.43125e-014 2.46493e-014
rhumerus 4.74503 -10.9653 -51.7756
rradius 112.912
rwrist -15.0092
rhand -37.7135 -1.27316
rfingers 7.12502
rthumb -10.7629 -30.9774
lclavicle 1.43125e-014 2.46493e-014
lhumerus 5.75504 11.3663 37.2016
lradius 109.005
lwrist -12.8547
lhand -33.021 18.3891
lfingers 7.12502
lthumb -6.23447 48.2773
rfemur -40.1756 -3.01956 2.04342
rtibia 56.71
rfoot -15.7355 -16.6999
rtoes -22.8296
lfemur -39.8422 -14.3962 -8.49551
ltibia 69.5487
lfoot -30.0242 11.1436
ltoes -22.467
188
root -10.3625 13.4042 2.05034 182.344 6.6366 -175.742
lowerback 28.353 -1.47441 0.112393
upperback 12.478 1.34917 -1.91694
thorax -1.60974 2.0806 -2.58381
lowerneck -8.67204 5.99056 7.68345
upperneck -11.2447 7.96081 -9.31329
head -1.41326 4.32066 -4.29779
rclavicle 1.43125e-014 7.95139e-015
rhumerus 4.88599 -10.9938 -51.6906
rradius 112.841
rwrist -14.9441
rhand -37.4858 -0.951642
rfingers 7.12502
rthumb -10.5432 -30.6672
lclavicle 1.43125e-014 7.95139e-015
lhumerus 5.2815 11.4272 37.0992
lradius 109.174
lwrist -12.7773
lhand -32.7455 18.518
lfingers 7.12502
lthumb -5.96852 48.414
rfemur -39.6809 -3.20855 1.82342
rtibia 55.4021
rfoot -15.4828 -17.0627
rtoes -23.031
lfemur -39.4877 -14.4161 -7.94794
ltibia 69.1939
lfoot -30.0184 11.308
ltoes -23.1912
189
root -10.1878 13.4144 2.03395 182.414 6.65732 -175.976
lowerback 28.2188 -1.49623 0.0250077
upperback 12.4632 1.27947 -1.91221
thorax -1.56894 2.03488 -2.50412
lowerneck -8.64143 5.99948 7.7334
upperneck -11.3049 7.96498 -9.47995
head -1.4287 4.32695 -4.36995
rclavicle 1.98785e-014 1.90833e-014
rhumerus 5.04339 -11.0239 -51.6021
rradius 112.79
rwrist -14.8551
rhand -37.2383 -0.722071
rfingers 7.12502
rthumb -10.3045 -30.4496
lclavicle 1.98785e-014 1.90833e-014
lhumerus 4.8187 11.5707 36.9921
lradius 109.401
lwrist -12.6907
lhand -32.6271 18.5281
lfingers 7.12502
lthumb -5.85422 48.4272
rfemur -39.3251 -3.59267 1.89457
rtibia 54.4924
rfoot -15.2577 -17.4193
rtoes -23.0806
lfemur -39.0899 -14.468 -7.40418
ltibia 68.6611
lfoot -29.9004 11.5872
ltoes -24.3519
190
root -10.0027 13.4318 2.01988 182.528 6.64239 -176.226
lowerback 28.0357 -1.52744 -0.0649969
upperback 12.441 1.19122 -1.92285
thorax -1.51411 1.97821 -2.43333
lowerneck -8.60346 6.00793 7.76706
upperneck -11.3506 7.97089 -9.59552
head -1.44337 4.33284 -4.42063
rclavicle -8.74653e-015 -2.38542e-015
rhumerus 5.20466 -11.0596 -51.5197
rradius 112.757
rwrist -14.756
rhand -36.9984 -0.55183
rfingers 7.12502
rthumb -10.0731 -30.2907
lclavicle -8.74653e-015 -2.38542e-015
lhumerus 4.38994 11.7725 36.8802
lradius 109.653
lwrist -12.6106
lhand -32.634 18.4156
lfingers 7.12502
lthumb -5.86083 48.3146
rfemur -39.1302 -4.08387 2.2217
rtibia 53.9668
rfoot -15.0302 -17.7647
rtoes -22.9954
lfemur -38.6603 -14.5564 -6.82179
ltibia 67.9461
lfoot -29.6775 11.9374
ltoes -25.7052
191
root -9.80738 13.4564 2.00795 182.672 6.59191 -176.518
lowerback 27.8167 -1.56442 -0.172116
upperback 12.4129 1.08776 -1.95791
thorax -1.44899 1.91294 -2.37456
lowerneck -8.57048 6.0134 7.78246
upperneck -11.3713 7.9747 -9.66161
head -1.45195 4.33608 -4.44915
rclavicle -7.15625e-015 -7.15625e-015
rhumerus 5.3605 -11.1065 -51.4521
rradius 112.744
rwrist -14.664
rhand -36.7836 -0.426659
rfingers 7.12502
rthumb -9.86585 -30.1755
lclavicle -7.15625e-015 -7.15625e-015
lhumerus 4.00535 12.0077 36.7608
lradius 109.905
lwrist -12.5546
lhand -32.7041 18.2044
lfingers 7.12502
lthumb -5.92858 48.1015
rfemur -39.0948 -4.58929 2.68363
rtibia 53.7721
rfoot -14.7539 -18.0506
rtoes -22.9556
lfemur -38.1812 -14.6985 -6.23725
ltibia 67.0407
lfoot -29.3513 12.3315
ltoes -27.0519
192
root -9.60248 13.4887 1.99775 182.823 6.49948 -176.846
lowerback 27.5877 -1.61251 -0.283473
upperback 12.3838 0.969801 -2.01754
thorax -1.37959 1.84167 -2.33647
lowerneck -8.54082 6.01552 7.80036
upperneck -11.3717 7.97382 -9.70057
head -1.45472 4.33523 -4.46778
rclavicle -4.92986e-014 -1.11319e-014
rhumerus 5.50045 -11.1638 -51.4129
rradius 112.759
rwrist -14.5838
rhand -36.5879 -0.343433
rfingers 7.12502
rthumb -9.6771 -30.1011
lclavicle -4.92986e-014 -1.11319e-014
lhumerus 3.66457 12.2492 36.6268
lradius 110.139
lwrist -12.5145
lhand -32.7881 17.9524
lfingers 7.12502
lthumb -6.00967 47.8471
rfemur -39.1797 -5.02457 3.20496
rtibia 53.8184
rfoot -14.4336 -18.2102
rtoes -22.9374
lfemur -37.6256 -14.9085 -5.65471
ltibia 65.9375
lfoot -28.9338 12.7152
ltoes -28.1955
193
root -9.38905 13.5298 1.98849 182.97 6.35548 -177.158
lowerback 27.3633 -1.68201 -0.352349
upperback 12.3597 0.838713 -2.08595
thorax -1.3067 1.76747 -2.32934
lowerneck -8.51405 6.01614 7.83478
upperneck -11.357 7.9691 -9.73425
head -1.45189 4.33096 -4.48717
rclavicle 2.14687e-014 -1.90833e-014
rhumerus 5.62471 -11.2149 -51.3965
rradius 112.818
rwrist -14.5133
rhand -36.4189 -0.293221
rfingers 7.12502
rthumb -9.51401 -30.0584
lclavicle 2.14687e-014 -1.90833e-014
lhumerus 3.36132 12.4714 36.4802
lradius 110.339
lwrist -12.4702
lhand -32.8715 17.7269
lfingers 7.12502
lthumb -6.09014 47.6194
rfemur -39.3214 -5.33363 3.78967
rtibia 53.9939
rfoot -14.107 -18.2865
rtoes -22.934
lfemur -36.9752 -15.1816 -5.02908
ltibia 64.6304
lfoot -28.4322 13.036
ltoes -29.0565
194
root -9.16791 13.5802 1.97925 183.098 6.1432 -177.444
lowerback 27.1524 -1.77571 -0.393805
upperback 12.3439 0.688657 -2.13984
thorax -1.23164 1.6864 -2.31775
lowerneck -8.47951 6.0205 7.88852
upperneck -11.3369 7.96609 -9.79922
head -1.44618 4.32701 -4.52152
rclavicle -1.39149e-014 -2.70347e-014
rhumerus 5.74221 -11.217 -51.364
rradius 112.932
rwrist -14.4491
rhand -36.305 -0.288423
rfingers 7.12502
rthumb -9.40412 -30.0586
lclavicle -1.39149e-014 -2.70347e-014
lhumerus 3.0634 12.6548 36.348
lradius 110.492
lwrist -12.422
lhand -32.9535 17.5633
lfingers 7.12502
lthumb -6.16936 47.4535
rfemur -39.4393 -5.51754 4.42437
rtibia 54.1908
rfoot -13.8514 -18.3883
rtoes -22.8694
lfemur -36.2196 -15.5155 -4.36194
ltibia 63.1181
lfoot -27.8282 13.3006
ltoes -29.7328
195
root -8.94014 13.6403 1.96946 183.192 5.85824 -177.71
lowerback 26.9582 -1.8966 -0.419748
upperback 12.3401 0.514185 -2.17963
thorax -1.15184 1.59599 -2.29396
lowerneck -8.49613 6.03492 7.94859
upperneck -11.4531 7.92386 -10.1915
head -1.28576 4.32426 -4.23885
rclavicle -2.78299e-015 9.54166e-015
rhumerus 5.84791 -11.145 -51.3067
rradius 113.104
rwrist -14.3812
rhand -36.2612 -0.329336
rfingers 7.12502
rthumb -9.36185 -30.1014
lclavicle -2.78299e-015 9.54166e-015
lhumerus 2.75967 12.7737 36.2596
lradius 110.593
lwrist -12.4023
lhand -33.0407 17.4523
lfingers 7.12502
lthumb -6.25349 47.3399
rfemur -39.4562 -5.60612 5.09691
rtibia 54.3238
rfoot -13.7948 -18.5762
rtoes -22.7074
lfemur -35.3533 -15.9 -3.67566
ltibia 61.4112
lfoot -27.1131 13.501
ltoes -30.2107
196
root -8.70702 13.7095 1.95901 183.253 5.51943 -177.978
lowerback 26.7771 -2.02761 -0.46172
upperback 12.3449 0.328335 -2.21062
thorax -1.06862 1.50105 -2.24931
lowerneck -8.46403 6.0397 8.03368
upperneck -11.4003 7.91696 -10.2531
head -1.26892 4.31526 -4.27056
rclavicle -5.56597e-015 -9.54166e-015
rhumerus 5.91736 -11.0065 -51.2259
rradius 113.327
rwrist -14.3081
rhand -36.28 -0.403787
rfingers 7.12502
rthumb -9.37994 -30.1751
lclavicle -5.56597e-015 -9.54166e-015
lhumerus 2.4659 12.8095 36.2128
lradius 110.635
lwrist -12.4146
lhand -33.1278 17.3657
lfingers 7.12502
lthumb -6.33756 47.2509
rfemur -39.3319 -5.63284 5.78629
rtibia 54.3441
rfoot -13.9654 -18.8561
rtoes -22.3
lfemur -34.3889 -16.3103 -3.01384
ltibia 59.5407
lfoot -26.2729 13.6386
ltoes -30.4096
197
root -8.47038 13.7861 1.94814 183.288 5.15067 -178.278
lowerback 26.5978 -2.14683 -0.552538
upperback 12.3496 0.148279 -2.24303
thorax -0.984898 1.40774 -2.18067
lowerneck -8.43057 6.04069 8.11611
upperneck -11.3339 7.9064 -10.2859
head -1.25034 4.3033 -4.29294
rclavicle -1.03368e-014 1.66979e-014
rhumerus 5.91476 -10.8324 -51.135
rradius 113.578
rwrist -14.2409
rhand -36.3294 -0.500074
rfingers 7.12502
rthumb -9.42761 -30.2692
lclavicle -1.03368e-014 1.66979e-014
lhumerus 2.20231 12.7382 36.2121
lradius 110.616
lwrist -12.4663
lhand -33.1904 17.2703
lfingers 7.12502
lthumb -6.39799 47.1536
rfemur -39.0693 -5.64021 6.46131
rtibia 54.2353
rfoot -14.3292 -19.1823
rtoes -21.8298
lfemur -33.3664 -16.7285 -2.43479
ltibia 57.5674
lfoot -25.2707 13.775
ltoes -30.2542
